<svg width="39" height="35" viewBox="0 0 39 35" fill="none" xmlns="http://www.w3.org/2000/svg">
<path d="M31.521 0.625H7.38586C3.6315 0.625 0.681641 3.71875 0.681641 7.65625V27.3438C0.681641 31.2812 3.6315 34.375 7.38586 34.375H31.521C35.2754 34.375 38.2252 31.2812 38.2252 27.3438V7.65625C38.2252 3.71875 35.2754 0.625 31.521 0.625ZM35.5436 27.3438C35.5436 29.7344 33.8005 31.5625 31.521 31.5625H7.38586C5.10642 31.5625 3.36333 29.7344 3.36333 27.3438V7.65625C3.36333 5.26562 5.10642 3.4375 7.38586 3.4375H31.521C33.8005 3.4375 35.5436 5.26562 35.5436 7.65625V27.3438Z" fill="#9FA19F"/>
</svg>
