<svg width="33" height="36" viewBox="0 0 33 36" fill="none" xmlns="http://www.w3.org/2000/svg">
<path d="M28.8 36H3.6C1.61177 36 0 34.3882 0 32.4V7.2C0 5.21177 1.61177 3.6 3.6 3.6H7.2V0H10.8V3.6H21.6V0H25.2V3.6H28.8C30.7882 3.6 32.4 5.21177 32.4 7.2V32.4C32.4 34.3882 30.7882 36 28.8 36ZM3.6 14.4V32.4H28.8V14.4H3.6ZM3.6 7.2V10.8H28.8V7.2H3.6ZM25.2 28.8H21.6V25.2H25.2V28.8ZM18 28.8H14.4V25.2H18V28.8ZM10.8 28.8H7.2V25.2H10.8V28.8ZM25.2 21.6H21.6V18H25.2V21.6ZM18 21.6H14.4V18H18V21.6ZM10.8 21.6H7.2V18H10.8V21.6Z" fill="#182233"/>
</svg>
