<svg width="38" height="40" viewBox="0 0 38 40" fill="none" xmlns="http://www.w3.org/2000/svg">
<path d="M35.7895 0H2.10526C0.941053 0 0 0.941053 0 2.10526V7.5579C0 8.65895 0.448421 9.74105 1.22737 10.52L12.6316 21.9242V37.8947C12.6316 38.6253 13.0105 39.3011 13.6316 39.6863C13.9684 39.8947 14.3516 40 14.7368 40C15.0589 40 15.3811 39.9263 15.6779 39.7789L24.0989 35.5684C24.8126 35.2105 25.2632 34.4821 25.2632 33.6842V21.9242L36.6674 10.52C37.4463 9.74105 37.8947 8.65895 37.8947 7.5579V2.10526C37.8947 0.941053 36.9537 0 35.7895 0ZM21.6695 19.5642C21.2737 19.9579 21.0526 20.4926 21.0526 21.0526V32.3832L16.8421 34.4884V21.0526C16.8421 20.4926 16.6211 19.9579 16.2253 19.5642L4.21053 7.5579V4.21053H33.6863L33.6905 7.54316L21.6695 19.5642Z" fill="#4B5563"/>
</svg>
