<svg width="41" height="35" viewBox="0 0 41 35" fill="none" xmlns="http://www.w3.org/2000/svg">
<path d="M33.1562 0.625H7.84375C3.90625 0.625 0.8125 3.71875 0.8125 7.65625V27.3438C0.8125 31.2812 3.90625 34.375 7.84375 34.375H33.1562C37.0938 34.375 40.1875 31.2812 40.1875 27.3438V7.65625C40.1875 3.71875 37.0938 0.625 33.1562 0.625ZM37.375 27.3438C37.375 29.7344 35.5469 31.5625 33.1562 31.5625H7.84375C5.45312 31.5625 3.625 29.7344 3.625 27.3438V7.65625C3.625 5.26562 5.45312 3.4375 7.84375 3.4375H33.1562C35.5469 3.4375 37.375 5.26562 37.375 7.65625V27.3438Z" fill="#9FA19F"/>
</svg>
